<svg xmlns="http://www.w3.org/2000/svg" width="256" height="256" viewBox="0 0 100 100"><rect width="100" height="100" rx="20" fill="#4acb7c"></rect><path fill="#4d4d62" d="M72.18 36.97L72.18 36.97L60.46 38.25Q59.96 36.47 58.74 34.91Q57.51 33.35 55.45 32.39Q53.39 31.43 50.41 31.43L50.41 31.43Q46.40 31.43 43.68 33.17Q40.96 34.91 41.00 37.68L41.00 37.68Q40.96 40.06 42.76 41.55Q44.55 43.04 48.70 44.00L48.70 44.00L58.01 45.99Q65.75 47.66 69.53 51.28Q73.31 54.90 73.35 60.76L73.35 60.76Q73.31 65.91 70.35 69.83Q67.38 73.76 62.13 75.96Q56.87 78.16 50.05 78.16L50.05 78.16Q40.04 78.16 33.93 73.95Q27.82 69.74 26.65 62.22L26.65 62.22L39.19 61.01Q40.04 64.70 42.81 66.58Q45.58 68.47 50.02 68.47L50.02 68.47Q54.60 68.47 57.39 66.58Q60.17 64.70 60.17 61.93L60.17 61.93Q60.17 59.59 58.38 58.06Q56.59 56.53 52.82 55.72L52.82 55.72L43.52 53.76Q35.67 52.13 31.91 48.24Q28.14 44.35 28.18 38.39L28.18 38.39Q28.14 33.35 30.93 29.63Q33.72 25.92 38.71 23.88Q43.70 21.84 50.23 21.84L50.23 21.84Q59.82 21.84 65.34 25.92Q70.86 30.01 72.18 36.97Z"></path></svg>